<svg xmlns="http://www.w3.org/2000/svg" width="179" height="87" viewBox="0 0 179 87" fill="none"><g clip-path="url(#clip0_112_4684)"><path fill-rule="evenodd" clip-rule="evenodd" d="M24.8715 15.4407C24.7168 15.4551 24.6052 15.581 24.6052 15.7358V20.1545C24.6052 20.2481 24.634 20.3128 24.7024 20.374C24.7707 20.4352 24.8391 20.4568 24.9327 20.446C36.3142 19.2082 48.3182 25.2533 48.75 37.8547C48.8256 40.0749 48.5917 42.2986 48.1419 44.472C47.7677 46.282 47.2027 48.0379 46.4147 49.7112C45.6482 51.3376 44.6875 52.8597 43.6152 54.299C43.097 54.9935 42.5645 55.6808 42.0319 56.3645C41.0676 57.5987 40.0708 58.8473 39.3584 60.2507C38.6063 61.7296 38.2249 63.3992 38.0306 65.0868C38.0018 65.3279 38.0738 65.5474 38.2321 65.7273C38.394 65.9072 38.6027 66.0008 38.8438 66.0008H42.3054C42.7156 66.0008 43.061 65.7021 43.1186 65.2955C43.2625 64.2916 43.5072 63.3092 43.9282 62.4816C44.4752 61.4021 45.2848 60.4306 46.0261 59.4806C46.5838 58.7646 47.1415 58.0485 47.6813 57.3216C48.9551 55.6088 50.0886 53.7953 50.9989 51.863C51.9561 49.8263 52.6506 47.6925 53.104 45.4903C53.6329 42.9247 53.9028 40.298 53.8128 37.6784C53.2803 22.1156 39.1928 14.1309 24.8679 15.4335L24.8715 15.4407Z" fill="black"></path><path fill-rule="evenodd" clip-rule="evenodd" d="M33.4175 39.6171C31.7191 39.3761 29.902 39.9482 28.8368 41.9633C28.5022 42.6002 28.3043 43.3522 28.1963 44.259C28.146 44.6836 27.8041 45.0002 27.3795 45.0218C27.2212 45.029 27.0593 45.0362 26.8973 45.0434C26.4512 45.0614 26.0697 44.7448 26.0014 44.3022C25.5192 41.0349 23.72 39.9698 21.8633 40.0561C20.8558 40.1065 19.8518 40.5455 19.0674 41.1716C18.2542 41.8229 17.6425 42.7045 17.4661 43.5969C17.1567 45.1478 17.9051 46.6303 20.5391 47.152C21.2624 47.296 22.1008 47.3859 22.9968 47.4327C23.4502 47.4579 23.8028 47.8213 23.8172 48.2747C24.0043 54.7373 23.9827 64.8342 23.9719 67.7309C23.9719 68.2094 24.3569 68.5981 24.8355 68.6017C25.055 68.6017 25.2781 68.6017 25.4976 68.6017C25.9762 68.6017 26.3648 68.2166 26.3684 67.7381C26.3792 64.8522 26.4008 54.8093 26.2173 48.3215C26.2029 47.8501 26.5735 47.4507 27.0485 47.4291C27.1025 47.4291 27.1528 47.4255 27.2068 47.4219C27.4479 47.4111 27.6602 47.4903 27.8365 47.6522C28.0128 47.8177 28.1064 48.0228 28.1136 48.2639C28.1244 48.631 28.1352 49.016 28.1496 49.419C28.3403 55.2663 28.531 61.9232 28.7217 67.7704C28.7361 68.249 29.1391 68.6232 29.6141 68.6089C29.8336 68.6017 30.0567 68.5945 30.2762 68.5873C30.5137 68.5801 30.7188 68.4865 30.8807 68.3138C31.0426 68.1411 31.1218 67.9324 31.1146 67.6913C30.9239 61.844 30.7332 55.1871 30.5425 49.3398C30.5281 48.872 30.5137 48.4258 30.5029 48.0048C30.4921 47.5479 30.8339 47.1628 31.2837 47.1197C31.3665 47.1125 31.4492 47.1017 31.532 47.0945C34.6338 46.7814 36.2926 45.8674 36.9871 44.7951C37.7787 43.5717 37.48 42.2799 36.5768 41.2544C35.8464 40.4232 34.6625 39.7791 33.4139 39.6027L33.4175 39.6171ZM23.3026 44.6872C23.1155 44.9175 22.8528 45.029 22.5578 45.0074C21.9928 44.9607 21.4675 44.8959 20.9997 44.8023C20.0785 44.6188 19.7727 44.3309 19.823 44.0647C19.8878 43.73 20.1721 43.3594 20.5607 43.0499C20.9781 42.7153 21.4891 42.4814 21.9784 42.4598C22.5614 42.431 23.1371 42.8125 23.4609 43.8956C23.5473 44.1798 23.4897 44.4605 23.3026 44.6908V44.6872ZM34.9792 43.5033C34.6625 43.9891 33.691 44.4353 31.7047 44.6764C31.4061 44.7124 31.1326 44.6044 30.9383 44.3741C30.744 44.1438 30.6828 43.856 30.7727 43.5645C30.8267 43.3846 30.8915 43.2227 30.9671 43.0787C31.46 42.1432 32.3056 41.8805 33.0937 41.992C33.7702 42.0892 34.3999 42.4238 34.7813 42.8556C34.99 43.0895 35.0907 43.3378 34.9864 43.4997L34.9792 43.5033Z" fill="#1D1C1C"></path><path fill-rule="evenodd" clip-rule="evenodd" d="M42.525 71.837H19.2403C18.9992 71.837 18.7941 71.7507 18.6249 71.5816C18.4558 71.4088 18.3731 71.2037 18.3731 70.9626C18.4162 66.4539 18.7113 63.7624 16.8006 59.9949C16.0701 58.5556 15.0554 57.2818 14.0659 56.0152C13.5333 55.3351 13.0079 54.6514 12.4898 53.9606C11.4391 52.5464 10.4999 51.0639 9.75146 49.4698C8.98142 47.8326 8.43088 46.1306 8.06745 44.3566C7.62845 42.23 7.39816 40.0458 7.47013 37.876C7.72561 30.4599 12.0796 25.4726 17.8549 22.9034C18.1751 22.7595 18.3695 22.4608 18.3695 22.1118V16.7647C18.3695 16.2861 17.9808 15.8975 17.5023 15.8975H0.867197C0.388619 15.8975 0 16.2861 0 16.7647V85.6942C0 86.1728 0.388619 86.5614 0.867197 86.5614H42.525C43.0036 86.5614 43.3922 86.1728 43.3922 85.6942V72.7078C43.3922 72.2293 43.0036 71.8406 42.525 71.8406V71.837ZM36.2999 79.3144C36.2999 81.1351 34.8102 82.6212 32.9931 82.6212H22.6479C20.8271 82.6212 19.341 81.1315 19.341 79.3144V76.8747C19.341 76.3961 19.7296 76.0075 20.2082 76.0075H35.4363C35.9149 76.0075 36.3035 76.3961 36.3035 76.8747V79.3144H36.2999Z" fill="#254FF3"></path><path fill-rule="evenodd" clip-rule="evenodd" d="M27.8511 0C26.8688 0 26.0627 0.806025 26.0627 1.78837V10.2408C26.0627 11.2232 26.8688 12.0292 27.8511 12.0292C28.8335 12.0292 29.6395 11.2268 29.6395 10.2408V1.78837C29.6395 0.806025 28.8371 0 27.8511 0Z" fill="black"></path><path fill-rule="evenodd" clip-rule="evenodd" d="M54.5218 11.1586L48.545 17.1354C47.8506 17.8298 47.8506 18.9669 48.545 19.665C49.2395 20.3595 50.3766 20.3595 51.0747 19.665L57.0515 13.6882C57.7459 12.9937 57.7459 11.8566 57.0515 11.1586C56.357 10.4641 55.2199 10.4641 54.5218 11.1586Z" fill="black"></path><path fill-rule="evenodd" clip-rule="evenodd" d="M67.5621 38.5957H59.1097C58.1273 38.5957 57.3213 39.3981 57.3213 40.3841C57.3213 41.37 58.1273 42.1724 59.1097 42.1724H67.5621C68.5445 42.1724 69.3505 41.3664 69.3505 40.3841C69.3505 39.4017 68.5481 38.5957 67.5621 38.5957Z" fill="black"></path><path fill-rule="evenodd" clip-rule="evenodd" d="M51.4992 61.4486C50.8047 60.7541 49.6677 60.7541 48.9696 61.4486C48.2751 62.1431 48.2751 63.2801 48.9696 63.9782L54.9464 69.955C55.6409 70.6495 56.778 70.6495 57.476 69.955C58.1705 69.2606 58.1705 68.1235 57.476 67.4254L51.4992 61.4486Z" fill="black"></path></g><path d="M90.5469 29.6825C90.4755 29.0792 90.1857 28.6108 89.6776 28.2773C89.1695 27.9439 88.5463 27.7772 87.808 27.7772C87.2682 27.7772 86.7958 27.8645 86.3909 28.0392C85.99 28.2138 85.6764 28.454 85.4501 28.7596C85.2279 29.0653 85.1167 29.4126 85.1167 29.8016C85.1167 30.1271 85.1941 30.4069 85.3489 30.6411C85.5077 30.8714 85.7101 31.0639 85.9563 31.2187C86.2024 31.3695 86.4604 31.4946 86.7303 31.5938C87.0002 31.6891 87.2483 31.7665 87.4746 31.826L88.713 32.1595C89.0306 32.2428 89.3839 32.3579 89.7729 32.5048C90.1658 32.6517 90.541 32.8521 90.8982 33.1062C91.2594 33.3562 91.5571 33.6778 91.7913 34.0707C92.0255 34.4637 92.1426 34.946 92.1426 35.5176C92.1426 36.1765 91.97 36.772 91.6246 37.3039C91.2832 37.8358 90.7831 38.2585 90.1242 38.5721C89.4692 38.8857 88.6733 39.0425 87.7365 39.0425C86.8633 39.0425 86.1071 38.9016 85.468 38.6197C84.8329 38.3379 84.3327 37.9449 83.9676 37.4408C83.6063 36.9367 83.4019 36.3512 83.3543 35.6843H84.8785C84.9182 36.1448 85.073 36.5258 85.343 36.8275C85.6169 37.1252 85.9622 37.3475 86.379 37.4944C86.7998 37.6373 87.2523 37.7087 87.7365 37.7087C88.3002 37.7087 88.8063 37.6174 89.2549 37.4348C89.7034 37.2483 90.0587 36.9903 90.3207 36.6608C90.5826 36.3274 90.7136 35.9384 90.7136 35.4938C90.7136 35.0889 90.6005 34.7594 90.3742 34.5054C90.148 34.2514 89.8503 34.0449 89.4811 33.8862C89.112 33.7274 88.713 33.5885 88.2843 33.4694L86.7839 33.0407C85.8312 32.7668 85.077 32.3758 84.5213 31.8677C83.9656 31.3596 83.6877 30.6947 83.6877 29.8731C83.6877 29.1903 83.8723 28.5949 84.2414 28.0868C84.6146 27.5747 85.1147 27.1778 85.7419 26.896C86.373 26.6102 87.0776 26.4673 87.8556 26.4673C88.6416 26.4673 89.3402 26.6082 89.9515 26.89C90.5628 27.1679 91.0471 27.5489 91.4043 28.0332C91.7655 28.5175 91.9561 29.0673 91.9759 29.6825H90.5469ZM96.0471 26.634V38.8281H94.5704V26.634H96.0471ZM99.0078 26.634H100.77L104.914 36.7561H105.057L109.201 26.634H110.964V38.8281H109.582V29.5634H109.463L105.653 38.8281H104.319L100.508 29.5634H100.389V38.8281H99.0078V26.634ZM113.924 38.8281V26.634H118.045C119.001 26.634 119.783 26.8067 120.391 27.152C121.002 27.4934 121.455 27.9558 121.748 28.5393C122.042 29.1228 122.189 29.7738 122.189 30.4923C122.189 31.2108 122.042 31.8637 121.748 32.4512C121.458 33.0387 121.01 33.5071 120.403 33.8564C119.795 34.2017 119.017 34.3744 118.069 34.3744H115.115V33.0645H118.021C118.676 33.0645 119.202 32.9514 119.599 32.7251C119.996 32.4988 120.284 32.1932 120.462 31.8082C120.645 31.4192 120.736 30.9805 120.736 30.4923C120.736 30.004 120.645 29.5674 120.462 29.1824C120.284 28.7973 119.994 28.4957 119.593 28.2773C119.192 28.055 118.66 27.9439 117.997 27.9439H115.401V38.8281H113.924ZM124.568 38.8281V26.634H126.044V37.5182H131.713V38.8281H124.568ZM133.999 38.8281V26.634H141.358V27.9439H135.476V32.0642H140.977V33.3741H135.476V37.5182H141.454V38.8281H133.999ZM93.6907 47.4447H92.2141C92.1268 47.0199 91.9739 46.6468 91.7556 46.3253C91.5413 46.0037 91.2793 45.7338 90.9697 45.5155C90.664 45.2932 90.3246 45.1265 89.9515 45.0154C89.5784 44.9042 89.1894 44.8486 88.7845 44.8486C88.0462 44.8486 87.3773 45.0352 86.7779 45.4083C86.1825 45.7815 85.7082 46.3312 85.3549 47.0576C85.0056 47.784 84.8309 48.6752 84.8309 49.7311C84.8309 50.7869 85.0056 51.6781 85.3549 52.4045C85.7082 53.1309 86.1825 53.6807 86.7779 54.0538C87.3773 54.4269 88.0462 54.6135 88.7845 54.6135C89.1894 54.6135 89.5784 54.5579 89.9515 54.4468C90.3246 54.3356 90.664 54.1709 90.9697 53.9526C91.2793 53.7303 91.5413 53.4584 91.7556 53.1368C91.9739 52.8113 92.1268 52.4382 92.2141 52.0175H93.6907C93.5796 52.6407 93.3771 53.1984 93.0834 53.6906C92.7897 54.1828 92.4245 54.6016 91.9878 54.9469C91.5512 55.2883 91.061 55.5483 90.5171 55.7269C89.9773 55.9055 89.3997 55.9948 88.7845 55.9948C87.7445 55.9948 86.8196 55.7408 86.0098 55.2327C85.2001 54.7246 84.563 54.0022 84.0985 53.0654C83.6341 52.1286 83.4019 51.0172 83.4019 49.7311C83.4019 48.445 83.6341 47.3335 84.0985 46.3967C84.563 45.4599 85.2001 44.7375 86.0098 44.2294C86.8196 43.7213 87.7445 43.4673 88.7845 43.4673C89.3997 43.4673 89.9773 43.5566 90.5171 43.7352C91.061 43.9138 91.5512 44.1758 91.9878 44.5212C92.4245 44.8625 92.7897 45.2793 93.0834 45.7715C93.3771 46.2598 93.5796 46.8175 93.6907 47.4447ZM106.366 49.7311C106.366 51.0172 106.133 52.1286 105.669 53.0654C105.205 54.0022 104.567 54.7246 103.758 55.2327C102.948 55.7408 102.023 55.9948 100.983 55.9948C99.9431 55.9948 99.0182 55.7408 98.2084 55.2327C97.3987 54.7246 96.7616 54.0022 96.2972 53.0654C95.8327 52.1286 95.6005 51.0172 95.6005 49.7311C95.6005 48.445 95.8327 47.3335 96.2972 46.3967C96.7616 45.4599 97.3987 44.7375 98.2084 44.2294C99.0182 43.7213 99.9431 43.4673 100.983 43.4673C102.023 43.4673 102.948 43.7213 103.758 44.2294C104.567 44.7375 105.205 45.4599 105.669 46.3967C106.133 47.3335 106.366 48.445 106.366 49.7311ZM104.937 49.7311C104.937 48.6752 104.76 47.784 104.407 47.0576C104.057 46.3312 103.583 45.7815 102.984 45.4083C102.388 45.0352 101.721 44.8486 100.983 44.8486C100.245 44.8486 99.5759 45.0352 98.9765 45.4083C98.3811 45.7815 97.9068 46.3312 97.5535 47.0576C97.2042 47.784 97.0295 48.6752 97.0295 49.7311C97.0295 50.7869 97.2042 51.6781 97.5535 52.4045C97.9068 53.1309 98.3811 53.6807 98.9765 54.0538C99.5759 54.4269 100.245 54.6135 100.983 54.6135C101.721 54.6135 102.388 54.4269 102.984 54.0538C103.583 53.6807 104.057 53.1309 104.407 52.4045C104.76 51.6781 104.937 50.7869 104.937 49.7311ZM108.849 43.634H110.611L114.755 53.7561H114.898L119.042 43.634H120.805V55.8281H119.423V46.5634H119.304L115.493 55.8281H114.16L110.349 46.5634H110.23V55.8281H108.849V43.634ZM123.765 55.8281V43.634H127.886C128.842 43.634 129.624 43.8067 130.231 44.152C130.843 44.4934 131.295 44.9558 131.589 45.5393C131.883 46.1228 132.03 46.7738 132.03 47.4923C132.03 48.2108 131.883 48.8637 131.589 49.4512C131.299 50.0387 130.851 50.5071 130.243 50.8564C129.636 51.2017 128.858 51.3744 127.909 51.3744H124.956V50.0645H127.862C128.517 50.0645 129.043 49.9514 129.44 49.7251C129.836 49.4988 130.124 49.1932 130.303 48.8082C130.485 48.4192 130.577 47.9805 130.577 47.4923C130.577 47.004 130.485 46.5674 130.303 46.1824C130.124 45.7973 129.835 45.4957 129.434 45.2773C129.033 45.055 128.501 44.9439 127.838 44.9439H125.242V55.8281H123.765ZM134.408 55.8281V43.634H135.885V54.5182H141.553V55.8281H134.408ZM143.84 55.8281V43.634H151.199V44.9439H145.316V49.0642H150.818V50.3741H145.316V54.5182H151.294V55.8281H143.84ZM154.575 43.634L157.719 48.7069H157.814L160.958 43.634H162.697L158.862 49.7311L162.697 55.8281H160.958L157.814 50.8504H157.719L154.575 55.8281H152.836L156.766 49.7311L152.836 43.634H154.575ZM90.5469 62.6825C90.4755 62.0792 90.1857 61.6108 89.6776 61.2773C89.1695 60.9439 88.5463 60.7772 87.808 60.7772C87.2682 60.7772 86.7958 60.8645 86.3909 61.0392C85.99 61.2138 85.6764 61.454 85.4501 61.7596C85.2279 62.0653 85.1167 62.4126 85.1167 62.8016C85.1167 63.1271 85.1941 63.4069 85.3489 63.6411C85.5077 63.8714 85.7101 64.0639 85.9563 64.2187C86.2024 64.3695 86.4604 64.4946 86.7303 64.5938C87.0002 64.6891 87.2483 64.7665 87.4746 64.826L88.713 65.1595C89.0306 65.2428 89.3839 65.3579 89.7729 65.5048C90.1658 65.6517 90.541 65.8521 90.8982 66.1062C91.2594 66.3562 91.5571 66.6778 91.7913 67.0707C92.0255 67.4637 92.1426 67.946 92.1426 68.5176C92.1426 69.1765 91.97 69.772 91.6246 70.3039C91.2832 70.8358 90.7831 71.2585 90.1242 71.5721C89.4692 71.8857 88.6733 72.0425 87.7365 72.0425C86.8633 72.0425 86.1071 71.9016 85.468 71.6197C84.8329 71.3379 84.3327 70.9449 83.9676 70.4408C83.6063 69.9367 83.4019 69.3512 83.3543 68.6843H84.8785C84.9182 69.1448 85.073 69.5258 85.343 69.8275C85.6169 70.1252 85.9622 70.3475 86.379 70.4944C86.7998 70.6373 87.2523 70.7087 87.7365 70.7087C88.3002 70.7087 88.8063 70.6174 89.2549 70.4348C89.7034 70.2483 90.0587 69.9903 90.3207 69.6608C90.5826 69.3274 90.7136 68.9384 90.7136 68.4938C90.7136 68.0889 90.6005 67.7594 90.3742 67.5054C90.148 67.2514 89.8503 67.0449 89.4811 66.8862C89.112 66.7274 88.713 66.5885 88.2843 66.4694L86.7839 66.0407C85.8312 65.7668 85.077 65.3758 84.5213 64.8677C83.9656 64.3596 83.6877 63.6947 83.6877 62.8731C83.6877 62.1903 83.8723 61.5949 84.2414 61.0868C84.6146 60.5747 85.1147 60.1778 85.7419 59.896C86.373 59.6102 87.0776 59.4673 87.8556 59.4673C88.6416 59.4673 89.3402 59.6082 89.9515 59.89C90.5628 60.1679 91.0471 60.5489 91.4043 61.0332C91.7655 61.5175 91.9561 62.0673 91.9759 62.6825H90.5469ZM104.859 65.7311C104.859 67.0172 104.627 68.1286 104.163 69.0654C103.698 70.0022 103.061 70.7246 102.251 71.2327C101.442 71.7408 100.517 71.9948 99.4767 71.9948C98.4367 71.9948 97.5118 71.7408 96.702 71.2327C95.8923 70.7246 95.2552 70.0022 94.7907 69.0654C94.3263 68.1286 94.0941 67.0172 94.0941 65.7311C94.0941 64.445 94.3263 63.3335 94.7907 62.3967C95.2552 61.4599 95.8923 60.7375 96.702 60.2294C97.5118 59.7213 98.4367 59.4673 99.4767 59.4673C100.517 59.4673 101.442 59.7213 102.251 60.2294C103.061 60.7375 103.698 61.4599 104.163 62.3967C104.627 63.3335 104.859 64.445 104.859 65.7311ZM103.43 65.7311C103.43 64.6752 103.254 63.784 102.9 63.0576C102.551 62.3312 102.077 61.7815 101.477 61.4083C100.882 61.0352 100.215 60.8486 99.4767 60.8486C98.7384 60.8486 98.0695 61.0352 97.4701 61.4083C96.8747 61.7815 96.4004 62.3312 96.0471 63.0576C95.6978 63.784 95.5231 64.6752 95.5231 65.7311C95.5231 66.7869 95.6978 67.6781 96.0471 68.4045C96.4004 69.1309 96.8747 69.6807 97.4701 70.0538C98.0695 70.4269 98.7384 70.6135 99.4767 70.6135C100.215 70.6135 100.882 70.4269 101.477 70.0538C102.077 69.6807 102.551 69.1309 102.9 68.4045C103.254 67.6781 103.43 66.7869 103.43 65.7311ZM107.342 71.8281V59.634H108.819V70.5182H114.487V71.8281H107.342ZM124.776 59.634H126.253V67.7078C126.253 68.5414 126.056 69.2857 125.663 69.9407C125.274 70.5916 124.724 71.1057 124.014 71.4828C123.303 71.8559 122.47 72.0425 121.513 72.0425C120.556 72.0425 119.723 71.8559 119.012 71.4828C118.302 71.1057 117.75 70.5916 117.357 69.9407C116.968 69.2857 116.774 68.5414 116.774 67.7078V59.634H118.25V67.5888C118.25 68.1842 118.381 68.7141 118.643 69.1785C118.905 69.639 119.278 70.0022 119.763 70.2681C120.251 70.5301 120.834 70.6611 121.513 70.6611C122.192 70.6611 122.775 70.5301 123.264 70.2681C123.752 70.0022 124.125 69.639 124.383 69.1785C124.645 68.7141 124.776 68.1842 124.776 67.5888V59.634ZM128.535 60.9439V59.634H137.68V60.9439H133.846V71.8281H132.369V60.9439H128.535ZM141.436 59.634V71.8281H139.959V59.634H141.436ZM154.685 65.7311C154.685 67.0172 154.453 68.1286 153.989 69.0654C153.524 70.0022 152.887 70.7246 152.077 71.2327C151.268 71.7408 150.343 71.9948 149.303 71.9948C148.263 71.9948 147.338 71.7408 146.528 71.2327C145.718 70.7246 145.081 70.0022 144.617 69.0654C144.152 68.1286 143.92 67.0172 143.92 65.7311C143.92 64.445 144.152 63.3335 144.617 62.3967C145.081 61.4599 145.718 60.7375 146.528 60.2294C147.338 59.7213 148.263 59.4673 149.303 59.4673C150.343 59.4673 151.268 59.7213 152.077 60.2294C152.887 60.7375 153.524 61.4599 153.989 62.3967C154.453 63.3335 154.685 64.445 154.685 65.7311ZM153.256 65.7311C153.256 64.6752 153.08 63.784 152.726 63.0576C152.377 62.3312 151.903 61.7815 151.303 61.4083C150.708 61.0352 150.041 60.8486 149.303 60.8486C148.564 60.8486 147.895 61.0352 147.296 61.4083C146.701 61.7815 146.226 62.3312 145.873 63.0576C145.524 63.784 145.349 64.6752 145.349 65.7311C145.349 66.7869 145.524 67.6781 145.873 68.4045C146.226 69.1309 146.701 69.6807 147.296 70.0538C147.895 70.4269 148.564 70.6135 149.303 70.6135C150.041 70.6135 150.708 70.4269 151.303 70.0538C151.903 69.6807 152.377 69.1309 152.726 68.4045C153.08 67.6781 153.256 66.7869 153.256 65.7311ZM166.838 59.634V71.8281H165.409L158.764 62.2538H158.645V71.8281H157.168V59.634H158.597L165.266 69.2321H165.385V59.634H166.838ZM176.461 62.6825C176.39 62.0792 176.1 61.6108 175.592 61.2773C175.084 60.9439 174.461 60.7772 173.722 60.7772C173.182 60.7772 172.71 60.8645 172.305 61.0392C171.904 61.2138 171.591 61.454 171.364 61.7596C171.142 62.0653 171.031 62.4126 171.031 62.8016C171.031 63.1271 171.108 63.4069 171.263 63.6411C171.422 63.8714 171.624 64.0639 171.87 64.2187C172.117 64.3695 172.375 64.4946 172.644 64.5938C172.914 64.6891 173.162 64.7665 173.389 64.826L174.627 65.1595C174.945 65.2428 175.298 65.3579 175.687 65.5048C176.08 65.6517 176.455 65.8521 176.812 66.1062C177.174 66.3562 177.471 66.6778 177.706 67.0707C177.94 67.4637 178.057 67.946 178.057 68.5176C178.057 69.1765 177.884 69.772 177.539 70.3039C177.197 70.8358 176.697 71.2585 176.038 71.5721C175.383 71.8857 174.588 72.0425 173.651 72.0425C172.777 72.0425 172.021 71.9016 171.382 71.6197C170.747 71.3379 170.247 70.9449 169.882 70.4408C169.521 69.9367 169.316 69.3512 169.268 68.6843H170.793C170.832 69.1448 170.987 69.5258 171.257 69.8275C171.531 70.1252 171.876 70.3475 172.293 70.4944C172.714 70.6373 173.166 70.7087 173.651 70.7087C174.214 70.7087 174.721 70.6174 175.169 70.4348C175.618 70.2483 175.973 69.9903 176.235 69.6608C176.497 69.3274 176.628 68.9384 176.628 68.4938C176.628 68.0889 176.515 67.7594 176.288 67.5054C176.062 67.2514 175.764 67.0449 175.395 66.8862C175.026 66.7274 174.627 66.5885 174.199 66.4694L172.698 66.0407C171.745 65.7668 170.991 65.3758 170.435 64.8677C169.88 64.3596 169.602 63.6947 169.602 62.8731C169.602 62.1903 169.786 61.5949 170.156 61.0868C170.529 60.5747 171.029 60.1778 171.656 59.896C172.287 59.6102 172.992 59.4673 173.77 59.4673C174.556 59.4673 175.254 59.6082 175.866 59.89C176.477 60.1679 176.961 60.5489 177.319 61.0332C177.68 61.5175 177.87 62.0673 177.89 62.6825H176.461Z" fill="black"></path><path d="M121.72 79.4714C121.478 79.4714 121.264 79.4293 121.078 79.3451C120.896 79.261 120.752 79.1435 120.647 78.9927C120.542 78.8419 120.486 78.6735 120.479 78.4876H120.868C120.886 78.6665 120.964 78.8243 121.105 78.9611C121.245 79.0944 121.45 79.161 121.72 79.161C121.969 79.161 122.166 79.0979 122.309 78.9716C122.457 78.8419 122.53 78.6788 122.53 78.4824C122.53 78.3246 122.49 78.1983 122.409 78.1036C122.329 78.0054 122.229 77.9335 122.11 77.8879C121.99 77.8388 121.825 77.7862 121.615 77.7301C121.37 77.6634 121.175 77.5986 121.031 77.5354C120.887 77.4723 120.765 77.3741 120.663 77.2408C120.561 77.1076 120.51 76.9269 120.51 76.699C120.51 76.5096 120.559 76.3412 120.658 76.1939C120.756 76.0431 120.894 75.9256 121.073 75.8415C121.252 75.7573 121.457 75.7152 121.689 75.7152C122.029 75.7152 122.302 75.7994 122.509 75.9677C122.72 76.1326 122.841 76.3465 122.872 76.6095H122.473C122.448 76.4587 122.366 76.3255 122.225 76.2097C122.085 76.0905 121.896 76.0309 121.657 76.0309C121.436 76.0309 121.252 76.0905 121.105 76.2097C120.957 76.3255 120.884 76.485 120.884 76.6885C120.884 76.8428 120.924 76.9673 121.005 77.062C121.085 77.1567 121.185 77.2286 121.305 77.2777C121.427 77.3268 121.592 77.3794 121.799 77.4355C122.038 77.5021 122.231 77.5688 122.378 77.6354C122.525 77.6985 122.65 77.7967 122.751 77.93C122.853 78.0633 122.904 78.2421 122.904 78.4666C122.904 78.6384 122.858 78.8015 122.767 78.9558C122.676 79.1102 122.541 79.2347 122.362 79.3294C122.183 79.424 121.969 79.4714 121.72 79.4714ZM124.873 79.4767C124.603 79.4767 124.359 79.417 124.142 79.2978C123.928 79.175 123.758 79.0032 123.631 78.7822C123.509 78.5578 123.447 78.2965 123.447 77.9984C123.447 77.7003 123.51 77.4407 123.637 77.2198C123.763 76.9953 123.935 76.8235 124.152 76.7042C124.37 76.5815 124.613 76.5201 124.883 76.5201C125.153 76.5201 125.397 76.5815 125.615 76.7042C125.836 76.8235 126.007 76.9953 126.13 77.2198C126.256 77.4407 126.32 77.7003 126.32 77.9984C126.32 78.293 126.256 78.5525 126.13 78.777C126.004 79.0014 125.83 79.175 125.609 79.2978C125.388 79.417 125.143 79.4767 124.873 79.4767ZM124.873 79.1558C125.062 79.1558 125.238 79.1137 125.399 79.0295C125.56 78.9418 125.69 78.812 125.788 78.6402C125.89 78.4648 125.941 78.2509 125.941 77.9984C125.941 77.7459 125.892 77.5337 125.793 77.3618C125.695 77.1865 125.565 77.0567 125.404 76.9725C125.243 76.8849 125.067 76.841 124.878 76.841C124.689 76.841 124.513 76.8849 124.352 76.9725C124.191 77.0567 124.061 77.1865 123.963 77.3618C123.868 77.5337 123.821 77.7459 123.821 77.9984C123.821 78.2509 123.868 78.4648 123.963 78.6402C124.061 78.812 124.189 78.9418 124.347 79.0295C124.508 79.1137 124.683 79.1558 124.873 79.1558ZM127.359 75.5416V79.4346H126.991V75.5416H127.359ZM130.681 76.5622V79.4346H130.313V78.9295C130.229 79.1084 130.099 79.2452 129.924 79.3399C129.748 79.4346 129.552 79.4819 129.335 79.4819C128.991 79.4819 128.71 79.3767 128.493 79.1663C128.275 78.9523 128.167 78.6437 128.167 78.2404V76.5622H128.53V78.1983C128.53 78.5104 128.607 78.7489 128.761 78.9138C128.919 79.0786 129.133 79.161 129.403 79.161C129.68 79.161 129.901 79.0733 130.066 78.898C130.231 78.7226 130.313 78.4648 130.313 78.1246V76.5622H130.681ZM132.001 76.8726V78.656C132.001 78.8313 132.034 78.9523 132.101 79.019C132.167 79.0856 132.285 79.1189 132.453 79.1189H132.79V79.4346H132.395C132.136 79.4346 131.943 79.3749 131.817 79.2557C131.69 79.133 131.627 78.933 131.627 78.656V76.8726H131.227V76.5622H131.627V75.8415H132.001V76.5622H132.79V76.8726H132.001ZM133.581 76.0203C133.508 76.0203 133.445 75.994 133.392 75.9414C133.339 75.8888 133.313 75.8239 133.313 75.7468C133.313 75.6696 133.339 75.6065 133.392 75.5574C133.445 75.5048 133.508 75.4785 133.581 75.4785C133.655 75.4785 133.718 75.5048 133.771 75.5574C133.823 75.6065 133.85 75.6696 133.85 75.7468C133.85 75.8239 133.823 75.8888 133.771 75.9414C133.718 75.994 133.655 76.0203 133.581 76.0203ZM133.765 76.5622V79.4346H133.397V76.5622H133.765ZM135.857 79.4767C135.587 79.4767 135.343 79.417 135.125 79.2978C134.912 79.175 134.741 79.0032 134.615 78.7822C134.492 78.5578 134.431 78.2965 134.431 77.9984C134.431 77.7003 134.494 77.4407 134.62 77.2198C134.747 76.9953 134.919 76.8235 135.136 76.7042C135.353 76.5815 135.597 76.5201 135.867 76.5201C136.137 76.5201 136.381 76.5815 136.598 76.7042C136.819 76.8235 136.991 76.9953 137.114 77.2198C137.24 77.4407 137.303 77.7003 137.303 77.9984C137.303 78.293 137.24 78.5525 137.114 78.777C136.988 79.0014 136.814 79.175 136.593 79.2978C136.372 79.417 136.127 79.4767 135.857 79.4767ZM135.857 79.1558C136.046 79.1558 136.221 79.1137 136.383 79.0295C136.544 78.9418 136.674 78.812 136.772 78.6402C136.874 78.4648 136.925 78.2509 136.925 77.9984C136.925 77.7459 136.876 77.5337 136.777 77.3618C136.679 77.1865 136.549 77.0567 136.388 76.9725C136.227 76.8849 136.051 76.841 135.862 76.841C135.673 76.841 135.497 76.8849 135.336 76.9725C135.175 77.0567 135.045 77.1865 134.947 77.3618C134.852 77.5337 134.805 77.7459 134.805 77.9984C134.805 78.2509 134.852 78.4648 134.947 78.6402C135.045 78.812 135.173 78.9418 135.331 79.0295C135.492 79.1137 135.667 79.1558 135.857 79.1558ZM139.321 76.5096C139.665 76.5096 139.946 76.6166 140.163 76.8305C140.381 77.0409 140.489 77.3478 140.489 77.7511V79.4346H140.126V77.7932C140.126 77.4811 140.047 77.2426 139.89 77.0778C139.735 76.9129 139.523 76.8305 139.253 76.8305C138.976 76.8305 138.755 76.9182 138.59 77.0935C138.425 77.2689 138.343 77.5267 138.343 77.8669V79.4346H137.975V76.5622H138.343V77.0514C138.434 76.8761 138.566 76.7428 138.737 76.6516C138.909 76.5569 139.104 76.5096 139.321 76.5096ZM142.293 79.4767C141.963 79.4767 141.693 79.4013 141.483 79.2504C141.276 79.0961 141.16 78.8875 141.135 78.6244H141.514C141.532 78.7857 141.607 78.9173 141.74 79.019C141.877 79.1172 142.06 79.1663 142.288 79.1663C142.487 79.1663 142.643 79.1189 142.756 79.0242C142.871 78.9295 142.929 78.812 142.929 78.6718C142.929 78.5736 142.898 78.4929 142.835 78.4298C142.771 78.3666 142.691 78.3175 142.593 78.2825C142.498 78.2439 142.368 78.2036 142.203 78.1615C141.989 78.1054 141.816 78.0492 141.683 77.9931C141.549 77.937 141.435 77.8546 141.341 77.7459C141.249 77.6336 141.204 77.4846 141.204 77.2987C141.204 77.1584 141.246 77.0287 141.33 76.9094C141.414 76.7902 141.533 76.6955 141.688 76.6253C141.842 76.5552 142.017 76.5201 142.214 76.5201C142.522 76.5201 142.771 76.599 142.961 76.7568C143.15 76.9112 143.252 77.1251 143.266 77.3987H142.898C142.887 77.2303 142.821 77.0953 142.698 76.9936C142.579 76.8884 142.414 76.8358 142.203 76.8358C142.017 76.8358 141.867 76.8796 141.751 76.9673C141.635 77.055 141.577 77.1637 141.577 77.2934C141.577 77.4057 141.611 77.4986 141.677 77.5723C141.747 77.6424 141.833 77.6985 141.935 77.7406C142.037 77.7792 142.174 77.823 142.345 77.8721C142.552 77.9282 142.717 77.9826 142.84 78.0352C142.963 78.0878 143.068 78.165 143.156 78.2667C143.243 78.3684 143.289 78.5034 143.292 78.6718C143.292 78.8261 143.25 78.9646 143.166 79.0874C143.082 79.2066 142.964 79.3013 142.814 79.3714C142.663 79.4416 142.489 79.4767 142.293 79.4767ZM147.418 75.7573V76.0624H145.797V77.4355H147.165V77.7406H145.797V79.4346H145.429V75.7573H147.418ZM149.281 79.4767C149.011 79.4767 148.767 79.417 148.55 79.2978C148.336 79.175 148.166 79.0032 148.039 78.7822C147.917 78.5578 147.855 78.2965 147.855 77.9984C147.855 77.7003 147.918 77.4407 148.045 77.2198C148.171 76.9953 148.343 76.8235 148.56 76.7042C148.778 76.5815 149.021 76.5201 149.291 76.5201C149.561 76.5201 149.805 76.5815 150.023 76.7042C150.244 76.8235 150.415 76.9953 150.538 77.2198C150.664 77.4407 150.728 77.7003 150.728 77.9984C150.728 78.293 150.664 78.5525 150.538 78.777C150.412 79.0014 150.238 79.175 150.017 79.2978C149.796 79.417 149.551 79.4767 149.281 79.4767ZM149.281 79.1558C149.47 79.1558 149.646 79.1137 149.807 79.0295C149.968 78.9418 150.098 78.812 150.196 78.6402C150.298 78.4648 150.349 78.2509 150.349 77.9984C150.349 77.7459 150.3 77.5337 150.201 77.3618C150.103 77.1865 149.974 77.0567 149.812 76.9725C149.651 76.8849 149.476 76.841 149.286 76.841C149.097 76.841 148.921 76.8849 148.76 76.9725C148.599 77.0567 148.469 77.1865 148.371 77.3618C148.276 77.5337 148.229 77.7459 148.229 77.9984C148.229 78.2509 148.276 78.4648 148.371 78.6402C148.469 78.812 148.597 78.9418 148.755 79.0295C148.916 79.1137 149.091 79.1558 149.281 79.1558ZM151.767 77.0725C151.848 76.8936 151.971 76.7551 152.135 76.6569C152.304 76.5587 152.509 76.5096 152.751 76.5096V76.8936H152.651C152.384 76.8936 152.17 76.9655 152.009 77.1093C151.848 77.2531 151.767 77.4934 151.767 77.83V79.4346H151.399V76.5622H151.767V77.0725ZM157.1 76.8147C157.1 77.1304 156.997 77.3846 156.79 77.5775C156.583 77.7704 156.272 77.8669 155.858 77.8669H155.117V79.4346H154.748V75.7573H155.858C156.269 75.7573 156.577 75.8538 156.784 76.0466C156.995 76.2395 157.1 76.4956 157.1 76.8147ZM155.858 77.5512C156.434 77.5512 156.721 77.3057 156.721 76.8147C156.721 76.5692 156.653 76.3833 156.516 76.2571C156.379 76.1308 156.16 76.0677 155.858 76.0677H155.117V77.5512H155.858ZM160.317 77.8511C160.317 77.9773 160.313 78.0738 160.306 78.1404H157.923C157.934 78.3579 157.986 78.5437 158.081 78.6981C158.176 78.8524 158.3 78.9699 158.454 79.0505C158.609 79.1277 158.777 79.1663 158.959 79.1663C159.198 79.1663 159.398 79.1084 159.559 78.9927C159.724 78.8769 159.833 78.7209 159.885 78.5245H160.275C160.204 78.805 160.054 79.0348 159.822 79.2136C159.594 79.389 159.307 79.4767 158.959 79.4767C158.689 79.4767 158.447 79.417 158.233 79.2978C158.02 79.175 157.851 79.0032 157.728 78.7822C157.609 78.5578 157.55 78.2965 157.55 77.9984C157.55 77.7003 157.609 77.439 157.728 77.2145C157.848 76.9901 158.014 76.8182 158.228 76.699C158.442 76.5797 158.686 76.5201 158.959 76.5201C159.233 76.5201 159.471 76.5797 159.675 76.699C159.882 76.8182 160.04 76.9796 160.148 77.183C160.261 77.3829 160.317 77.6056 160.317 77.8511ZM159.943 77.8406C159.947 77.6266 159.903 77.4443 159.812 77.2934C159.724 77.1426 159.603 77.0287 159.449 76.9515C159.294 76.8743 159.126 76.8358 158.944 76.8358C158.67 76.8358 158.437 76.9234 158.244 77.0988C158.051 77.2742 157.944 77.5214 157.923 77.8406H159.943ZM162.248 79.4767C161.978 79.4767 161.734 79.417 161.517 79.2978C161.303 79.175 161.133 79.0032 161.006 78.7822C160.884 78.5578 160.822 78.2965 160.822 77.9984C160.822 77.7003 160.885 77.4407 161.012 77.2198C161.138 76.9953 161.31 76.8235 161.527 76.7042C161.745 76.5815 161.988 76.5201 162.258 76.5201C162.528 76.5201 162.772 76.5815 162.99 76.7042C163.211 76.8235 163.382 76.9953 163.505 77.2198C163.631 77.4407 163.694 77.7003 163.694 77.9984C163.694 78.293 163.631 78.5525 163.505 78.777C163.379 79.0014 163.205 79.175 162.984 79.2978C162.763 79.417 162.518 79.4767 162.248 79.4767ZM162.248 79.1558C162.437 79.1558 162.613 79.1137 162.774 79.0295C162.935 78.9418 163.065 78.812 163.163 78.6402C163.265 78.4648 163.316 78.2509 163.316 77.9984C163.316 77.7459 163.267 77.5337 163.168 77.3618C163.07 77.1865 162.94 77.0567 162.779 76.9725C162.618 76.8849 162.442 76.841 162.253 76.841C162.064 76.841 161.888 76.8849 161.727 76.9725C161.566 77.0567 161.436 77.1865 161.338 77.3618C161.243 77.5337 161.196 77.7459 161.196 77.9984C161.196 78.2509 161.243 78.4648 161.338 78.6402C161.436 78.812 161.564 78.9418 161.722 79.0295C161.883 79.1137 162.058 79.1558 162.248 79.1558ZM164.729 77.1935C164.82 77.0006 164.964 76.841 165.16 76.7148C165.36 76.585 165.597 76.5201 165.87 76.5201C166.13 76.5201 166.363 76.5815 166.57 76.7042C166.78 76.8235 166.944 76.9953 167.059 77.2198C167.179 77.4407 167.238 77.6985 167.238 77.9931C167.238 78.2877 167.179 78.5473 167.059 78.7717C166.944 78.9962 166.78 79.1698 166.57 79.2925C166.363 79.4153 166.13 79.4767 165.87 79.4767C165.6 79.4767 165.365 79.4135 165.165 79.2873C164.966 79.1575 164.82 78.9962 164.729 78.8033V80.7918H164.366V76.5622H164.729V77.1935ZM166.865 77.9931C166.865 77.7546 166.817 77.5495 166.723 77.3776C166.631 77.2023 166.505 77.069 166.344 76.9778C166.182 76.8866 166 76.841 165.797 76.841C165.6 76.841 165.42 76.8884 165.255 76.9831C165.094 77.0778 164.966 77.2128 164.871 77.3881C164.776 77.5635 164.729 77.7669 164.729 77.9984C164.729 78.2299 164.776 78.4333 164.871 78.6086C164.966 78.784 165.094 78.919 165.255 79.0137C165.42 79.1084 165.6 79.1558 165.797 79.1558C166 79.1558 166.182 79.1102 166.344 79.019C166.505 78.9243 166.631 78.7893 166.723 78.6139C166.817 78.435 166.865 78.2281 166.865 77.9931ZM168.284 75.5416V79.4346H167.916V75.5416H168.284ZM171.717 77.8511C171.717 77.9773 171.713 78.0738 171.706 78.1404H169.323C169.334 78.3579 169.386 78.5437 169.481 78.6981C169.576 78.8524 169.7 78.9699 169.854 79.0505C170.009 79.1277 170.177 79.1663 170.359 79.1663C170.598 79.1663 170.798 79.1084 170.959 78.9927C171.124 78.8769 171.233 78.7209 171.285 78.5245H171.675C171.605 78.805 171.454 79.0348 171.222 79.2136C170.994 79.389 170.707 79.4767 170.359 79.4767C170.089 79.4767 169.847 79.417 169.633 79.2978C169.42 79.175 169.251 79.0032 169.128 78.7822C169.009 78.5578 168.95 78.2965 168.95 77.9984C168.95 77.7003 169.009 77.439 169.128 77.2145C169.248 76.9901 169.414 76.8182 169.628 76.699C169.842 76.5797 170.086 76.5201 170.359 76.5201C170.633 76.5201 170.872 76.5797 171.075 76.699C171.282 76.8182 171.44 76.9796 171.548 77.183C171.661 77.3829 171.717 77.6056 171.717 77.8511ZM171.343 77.8406C171.347 77.6266 171.303 77.4443 171.212 77.2934C171.124 77.1426 171.003 77.0287 170.849 76.9515C170.694 76.8743 170.526 76.8358 170.344 76.8358C170.07 76.8358 169.837 76.9234 169.644 77.0988C169.451 77.2742 169.344 77.5214 169.323 77.8406H171.343Z" fill="black"></path><line x1="76.1047" y1="17.6318" x2="76.1047" y2="84.5607" stroke="#254FF3" stroke-width="0.359833"></line><line x1="116.946" y1="77.9035" x2="83.4811" y2="77.9035" stroke="#254FF3" stroke-width="0.359833"></line><defs><clipPath id="clip0_112_4684"><rect width="69.3505" height="86.5577" fill="white"></rect></clipPath></defs></svg>