<svg xmlns="http://www.w3.org/2000/svg" width="60" height="60" viewBox="0 0 90 90" fill="none"><circle cx="45" cy="45" r="45" fill="#254FF3" fill-opacity="0.1"></circle><path d="M61.2246 46.955H45.3689C44.9484 46.955 44.5451 47.122 44.2478 47.4194C43.9504 47.7167 43.7834 48.12 43.7834 48.5405V59.9269C43.7829 60.2985 43.9131 60.6585 44.1511 60.944C44.3891 61.2294 44.7198 61.4222 45.0855 61.4886L60.9411 64.3704C61.0346 64.3879 61.1295 64.3965 61.2246 64.3962C61.6451 64.3962 62.0484 64.2291 62.3457 63.9318C62.6431 63.6344 62.8101 63.2311 62.8101 62.8106V48.5405C62.8101 48.12 62.6431 47.7167 62.3457 47.4194C62.0484 47.122 61.6451 46.955 61.2246 46.955ZM59.639 60.9099L46.9545 58.6049V50.1261H59.639V60.9099ZM39.0267 46.955H26.3422C25.9216 46.955 25.5183 47.122 25.221 47.4194C24.9236 47.7167 24.7566 48.12 24.7566 48.5405V56.4683C24.7566 56.8397 24.887 57.1992 25.125 57.4842C25.3629 57.7693 25.6934 57.9618 26.0587 58.0281L38.7432 60.3351C38.8368 60.3517 38.9316 60.3603 39.0267 60.3609C39.4472 60.3609 39.8505 60.1939 40.1478 59.8965C40.4452 59.5992 40.6122 59.1959 40.6122 58.7753V48.5405C40.6122 48.12 40.4452 47.7167 40.1478 47.4194C39.8505 47.122 39.4472 46.955 39.0267 46.955ZM37.4411 56.8746L27.9277 55.1444V50.1261H37.4411V56.8746ZM62.2413 26.7113C62.0629 26.5623 61.854 26.4544 61.6294 26.3952C61.4047 26.3359 61.1697 26.3268 60.9411 26.3684L45.0855 29.2521C44.7202 29.3185 44.3897 29.511 44.1517 29.7961C43.9138 30.0811 43.7834 30.4406 43.7834 30.8119V42.1983C43.7834 42.6188 43.9504 43.0221 44.2478 43.3194C44.5451 43.6168 44.9484 43.7838 45.3689 43.7838H61.2246C61.6451 43.7838 62.0484 43.6168 62.3457 43.3194C62.6431 43.0221 62.8101 42.6188 62.8101 42.1983V27.9282C62.8102 27.6961 62.7592 27.4668 62.6609 27.2565C62.5627 27.0462 62.4194 26.8601 62.2413 26.7113ZM59.639 40.6127H46.9545V32.1339L59.639 29.8289V40.6127ZM40.0434 30.7465C39.8651 30.5976 39.6561 30.4897 39.4315 30.4305C39.2068 30.3712 38.9718 30.3621 38.7432 30.4037L26.0587 32.7107C25.6934 32.777 25.3629 32.9695 25.125 33.2546C24.887 33.5396 24.7566 33.8991 24.7566 34.2705V42.1983C24.7566 42.6188 24.9236 43.0221 25.221 43.3194C25.5183 43.6168 25.9216 43.7838 26.3422 43.7838H39.0267C39.4472 43.7838 39.8505 43.6168 40.1478 43.3194C40.4452 43.0221 40.6122 42.6188 40.6122 42.1983V31.9635C40.6123 31.7313 40.5613 31.5021 40.4631 31.2918C40.3648 31.0815 40.2215 30.8954 40.0434 30.7465ZM37.4411 40.6127H27.9277V35.5944L37.4411 33.8741V40.6127Z" fill="#254FF3"></path></svg>