<svg xmlns="http://www.w3.org/2000/svg" width="60" height="60" viewBox="0 0 90 90" fill="none"><circle cx="45" cy="45" r="45" fill="#254FF3" fill-opacity="0.1"></circle><path d="M52.9565 47.913H49.7391V43.087H52.9565C54.5474 43.087 56.1025 42.6152 57.4252 41.7314C58.748 40.8476 59.7789 39.5913 60.3877 38.1216C60.9965 36.6518 61.1558 35.0346 60.8454 33.4743C60.5351 31.914 59.769 30.4808 58.6441 29.3559C57.5192 28.231 56.086 27.4649 54.5257 27.1546C52.9654 26.8442 51.3482 27.0035 49.8784 27.6123C48.4087 28.2211 47.1524 29.252 46.2686 30.5748C45.3848 31.8975 44.913 33.4526 44.913 35.0435V38.2609H40.087V35.0435C40.087 33.4526 39.6152 31.8975 38.7314 30.5748C37.8476 29.252 36.5913 28.2211 35.1216 27.6123C33.6518 27.0035 32.0346 26.8442 30.4743 27.1546C28.914 27.4649 27.4808 28.231 26.3559 29.3559C25.231 30.4808 24.4649 31.914 24.1546 33.4743C23.8442 35.0346 24.0035 36.6518 24.6123 38.1216C25.2211 39.5913 26.252 40.8476 27.5748 41.7314C28.8975 42.6152 30.4526 43.087 32.0435 43.087H35.2609V47.913H32.0435C30.4526 47.913 28.8975 48.3848 27.5748 49.2686C26.252 50.1524 25.2211 51.4087 24.6123 52.8784C24.0035 54.3482 23.8442 55.9654 24.1546 57.5257C24.4649 59.086 25.231 60.5192 26.3559 61.6441C27.4808 62.769 28.914 63.5351 30.4743 63.8454C32.0346 64.1558 33.6518 63.9965 35.1216 63.3877C36.5913 62.7789 37.8476 61.748 38.7314 60.4252C39.6152 59.1025 40.087 57.5474 40.087 55.9565V52.7391H44.913V55.9565C44.913 57.5474 45.3848 59.1025 46.2686 60.4252C47.1524 61.748 48.4087 62.7789 49.8784 63.3877C51.3482 63.9965 52.9654 64.1558 54.5257 63.8454C56.086 63.5351 57.5192 62.769 58.6441 61.6441C59.769 60.5192 60.5351 59.086 60.8454 57.5257C61.1558 55.9654 60.9965 54.3482 60.3877 52.8784C59.7789 51.4087 58.748 50.1524 57.4252 49.2686C56.1025 48.3848 54.5474 47.913 52.9565 47.913ZM49.7391 35.0435C49.7391 34.4071 49.9278 33.7851 50.2814 33.256C50.6349 32.7269 51.1374 32.3145 51.7253 32.071C52.3132 31.8275 52.9601 31.7638 53.5842 31.8879C54.2083 32.0121 54.7816 32.3185 55.2316 32.7684C55.6815 33.2184 55.9879 33.7917 56.1121 34.4158C56.2362 35.0399 56.1725 35.6868 55.929 36.2747C55.6855 36.8626 55.2731 37.3651 54.744 37.7186C54.2149 38.0722 53.5929 38.2609 52.9565 38.2609H49.7391V35.0435ZM28.8261 35.0435C28.8261 34.1902 29.1651 33.3718 29.7684 32.7684C30.3718 32.1651 31.1902 31.8261 32.0435 31.8261C32.8968 31.8261 33.7151 32.1651 34.3185 32.7684C34.9219 33.3718 35.2609 34.1902 35.2609 35.0435V38.2609H32.0435C31.1902 38.2609 30.3718 37.9219 29.7684 37.3185C29.1651 36.7151 28.8261 35.8968 28.8261 35.0435ZM35.2609 55.9565C35.2609 56.5929 35.0722 57.2149 34.7186 57.744C34.3651 58.2731 33.8626 58.6855 33.2747 58.929C32.6868 59.1725 32.0399 59.2362 31.4158 59.1121C30.7917 58.9879 30.2184 58.6815 29.7684 58.2316C29.3185 57.7816 29.0121 57.2083 28.8879 56.5842C28.7638 55.9601 28.8275 55.3132 29.071 54.7253C29.3145 54.1374 29.7269 53.6349 30.256 53.2814C30.7851 52.9278 31.4071 52.7391 32.0435 52.7391H35.2609V55.9565ZM40.087 43.087H44.913V47.913H40.087V43.087ZM52.9565 59.1739C52.1032 59.1739 51.2849 58.8349 50.6815 58.2316C50.0781 57.6282 49.7391 56.8098 49.7391 55.9565V52.7391H52.9565C53.8098 52.7391 54.6282 53.0781 55.2316 53.6815C55.8349 54.2849 56.1739 55.1032 56.1739 55.9565C56.1739 56.8098 55.8349 57.6282 55.2316 58.2316C54.6282 58.8349 53.8098 59.1739 52.9565 59.1739Z" fill="#254FF3"></path></svg>