 <svg xmlns="http://www.w3.org/2000/svg" width="60" height="60" viewBox="0 0 90 90" fill="none"><circle cx="45" cy="45" r="45" fill="#254FF3" fill-opacity="0.1"></circle><path d="M61.2247 26.3418H29.5134C28.6724 26.3418 27.8658 26.6759 27.2711 27.2706C26.6764 27.8653 26.3423 28.6719 26.3423 29.5129V61.2242C26.3423 62.0652 26.6764 62.8718 27.2711 63.4665C27.8658 64.0612 28.6724 64.3953 29.5134 64.3953H61.2247C62.0657 64.3953 62.8723 64.0612 63.467 63.4665C64.0617 62.8718 64.3958 62.0652 64.3958 61.2242V29.5129C64.3958 28.6719 64.0617 27.8653 63.467 27.2706C62.8723 26.6759 62.0657 26.3418 61.2247 26.3418ZM37.4412 51.7108C37.7548 51.7108 38.0614 51.8038 38.3221 51.978C38.5829 52.1523 38.7861 52.3999 38.9061 52.6896C39.0261 52.9793 39.0575 53.2981 38.9963 53.6057C38.9351 53.9133 38.7841 54.1958 38.5624 54.4175C38.3406 54.6393 38.0581 54.7903 37.7506 54.8515C37.443 54.9127 37.1242 54.8813 36.8345 54.7612C36.5447 54.6412 36.2971 54.438 36.1229 54.1773C35.9487 53.9165 35.8557 53.61 35.8557 53.2964C35.8557 52.8759 36.0227 52.4726 36.3201 52.1752C36.6174 51.8779 37.0207 51.7108 37.4412 51.7108ZM29.5134 29.5129H35.8557V48.8132C34.7978 49.1872 33.9061 49.9232 33.3384 50.891C32.7706 51.8589 32.5633 52.9963 32.753 54.1022C32.9428 55.2081 33.5174 56.2114 34.3753 56.9346C35.2332 57.6579 36.3191 58.0545 37.4412 58.0545C38.5633 58.0545 39.6493 57.6579 40.5072 56.9346C41.3651 56.2114 41.9397 55.2081 42.1294 54.1022C42.3192 52.9963 42.1118 51.8589 41.5441 50.891C40.9763 49.9232 40.0847 49.1872 39.0268 48.8132V42.8535L48.5402 52.3668V61.2242H29.5134V29.5129ZM61.2247 61.2242H51.7113V51.7108C51.7115 51.5025 51.6706 51.2963 51.591 51.1038C51.5114 50.9113 51.3947 50.7364 51.2475 50.589L39.0268 38.3703V29.5129H45.369V34.2696C45.3689 34.4779 45.4098 34.6842 45.4893 34.8766C45.5689 35.0691 45.6856 35.244 45.8328 35.3914L49.004 38.5625C48.6969 39.202 48.5383 39.9025 48.5402 40.6119C48.5402 41.5527 48.8192 42.4723 49.3418 43.2545C49.8645 44.0368 50.6074 44.6465 51.4766 45.0065C52.3457 45.3665 53.3021 45.4607 54.2249 45.2772C55.1476 45.0936 55.9951 44.6406 56.6604 43.9754C57.3256 43.3101 57.7786 42.4626 57.9622 41.5399C58.1457 40.6171 58.0515 39.6607 57.6915 38.7916C57.3315 37.9224 56.7218 37.1795 55.9395 36.6568C55.1573 36.1342 54.2377 35.8552 53.2969 35.8552C52.5874 35.8539 51.8868 36.0132 51.2475 36.3209L48.5402 33.6136V29.5129H61.2247V61.2242ZM53.2969 39.0263C53.6105 39.0263 53.917 39.1193 54.1778 39.2935C54.4385 39.4677 54.6417 39.7154 54.7617 40.0051C54.8817 40.2948 54.9131 40.6136 54.852 40.9212C54.7908 41.2288 54.6398 41.5113 54.418 41.733C54.1963 41.9548 53.9138 42.1058 53.6062 42.167C53.2986 42.2281 52.9798 42.1967 52.6901 42.0767C52.4004 41.9567 52.1527 41.7535 51.9785 41.4928C51.8043 41.232 51.7113 40.9255 51.7113 40.6119C51.7113 40.1914 51.8784 39.7881 52.1757 39.4907C52.4731 39.1934 52.8764 39.0263 53.2969 39.0263Z" fill="#254FF3"></path></svg>