<svg xmlns="http://www.w3.org/2000/svg" width="60" height="60" viewBox="0 0 90 90" fill="none"><circle cx="45" cy="45" r="45" fill="#254FF3" fill-opacity="0.1"></circle><path d="M55.3463 52.833L51.7114 49.1961V61.2246C51.7114 61.6451 51.5443 62.0484 51.247 62.3457C50.9496 62.6431 50.5463 62.8101 50.1258 62.8101C49.7053 62.8101 49.302 62.6431 49.0047 62.3457C48.7073 62.0484 48.5403 61.6451 48.5403 61.2246V49.1961L44.9054 52.833C44.758 52.9803 44.5832 53.0971 44.3907 53.1769C44.1982 53.2566 43.9919 53.2976 43.7836 53.2976C43.5752 53.2976 43.3689 53.2566 43.1765 53.1769C42.984 53.0971 42.8091 52.9803 42.6618 52.833C42.5145 52.6857 42.3976 52.5108 42.3179 52.3183C42.2382 52.1258 42.1971 51.9195 42.1971 51.7112C42.1971 51.5029 42.2382 51.2966 42.3179 51.1041C42.3976 50.9116 42.5145 50.7367 42.6618 50.5894L49.004 44.2471C49.1513 44.0997 49.3262 43.9828 49.5186 43.903C49.7111 43.8232 49.9175 43.7821 50.1258 43.7821C50.3342 43.7821 50.5405 43.8232 50.733 43.903C50.9255 43.9828 51.1004 44.0997 51.2476 44.2471L57.5899 50.5894C57.7372 50.7367 57.854 50.9116 57.9338 51.1041C58.0135 51.2966 58.0545 51.5029 58.0545 51.7112C58.0545 51.9195 58.0135 52.1258 57.9338 52.3183C57.854 52.5108 57.7372 52.6857 57.5899 52.833C57.4426 52.9803 57.2677 53.0971 57.0752 53.1769C56.8827 53.2566 56.6764 53.2976 56.4681 53.2976C56.2597 53.2976 56.0534 53.2566 55.861 53.1769C55.6685 53.0971 55.4936 52.9803 55.3463 52.833ZM51.7114 27.9277C48.472 27.9302 45.2972 28.8339 42.5421 30.5378C39.7871 32.2418 37.5605 34.6787 36.1114 37.5759C34.3862 37.3224 32.6272 37.4273 30.9443 37.8841C29.2614 38.3409 27.6908 39.1398 26.3306 40.2309C24.9703 41.322 23.8496 42.6818 23.0385 44.2254C22.2274 45.7691 21.7433 47.4634 21.6164 49.2025C21.4895 50.9417 21.7226 52.6883 22.301 54.3334C22.8794 55.9784 23.7909 57.4865 24.9783 58.7635C26.1658 60.0404 27.6038 61.0589 29.2025 61.7551C30.8013 62.4514 32.5264 62.8105 34.2702 62.8101H42.198C42.6185 62.8101 43.0218 62.6431 43.3192 62.3457C43.6165 62.0484 43.7836 61.6451 43.7836 61.2246C43.7836 60.8041 43.6165 60.4008 43.3192 60.1034C43.0218 59.8061 42.6185 59.639 42.198 59.639H34.2702C31.7471 59.639 29.3273 58.6367 27.5432 56.8526C25.7591 55.0685 24.7568 52.6487 24.7568 50.1256C24.7568 47.6025 25.7591 45.1828 27.5432 43.3986C29.3273 41.6145 31.7471 40.6122 34.2702 40.6122C34.4882 40.6122 34.7062 40.6122 34.9222 40.636C34.4888 42.1763 34.2694 43.7689 34.2702 45.3689C34.2702 45.7895 34.4372 46.1927 34.7346 46.4901C35.0319 46.7874 35.4352 46.9545 35.8558 46.9545C36.2763 46.9545 36.6796 46.7874 36.9769 46.4901C37.2743 46.1927 37.4413 45.7895 37.4413 45.3689C37.4417 42.7963 38.1376 40.2716 39.4553 38.062C40.773 35.8524 42.6635 34.0402 44.9268 32.817C47.1901 31.5939 49.742 31.0053 52.3123 31.1137C54.8827 31.222 57.376 32.0232 59.5283 33.4325C61.6807 34.8418 63.412 36.8067 64.5391 39.1193C65.6662 41.4319 66.1471 44.0062 65.931 46.5698C65.7149 49.1334 64.8098 51.5908 63.3115 53.6821C61.8131 55.7734 59.7773 57.4208 57.4194 58.4498C57.0846 58.595 56.8101 58.8512 56.6422 59.1752C56.4744 59.4992 56.4234 59.8712 56.4979 60.2284C56.5724 60.5856 56.7679 60.9062 57.0513 61.1361C57.3347 61.3659 57.6887 61.491 58.0536 61.4902C58.2721 61.49 58.4882 61.4441 58.6879 61.3554C62.3611 59.7531 65.3705 56.9347 67.2099 53.3743C69.0493 49.8139 69.6065 45.7286 68.7877 41.8057C67.969 37.8827 65.8243 34.3614 62.7143 31.8339C59.6044 29.3064 55.7189 27.927 51.7114 27.9277Z" fill="#254FF3"></path></svg>