<svg xmlns="http://www.w3.org/2000/svg" width="60" height="60" viewBox="0 0 90 90" fill="none"><circle cx="45" cy="45" r="45" fill="#254FF3" fill-opacity="0.1"></circle><path d="M25.0454 35.9613L62.5141 24.1854L62.5481 24.1745C63.1831 23.9848 63.8525 23.9492 64.5032 24.0704C65.1539 24.1917 65.7681 24.4664 66.2971 24.8729C66.8262 25.2795 67.2555 25.8065 67.5511 26.4124C67.8466 27.0183 68.0003 27.6864 68 28.3637V59.7662C68 60.9207 67.553 62.0281 66.757 62.8456C65.961 63.6632 64.8809 64.1242 63.7535 64.1277C63.3456 64.1271 62.9398 64.0677 62.5481 63.9511H62.5141L45.8519 58.7173V60.6385C45.8519 61.7953 45.4031 62.9046 44.6043 63.7226C43.8056 64.5405 42.7222 65 41.5926 65H34.7778C33.6482 65 32.5648 64.5405 31.766 63.7226C30.9673 62.9046 30.5185 61.7953 30.5185 60.6385V53.8913L25.0454 52.1707C24.1674 51.8998 23.3977 51.3474 22.8494 50.5948C22.3012 49.8422 22.0034 48.9292 22 47.9903V40.1396C22.0039 39.2011 22.3018 38.2886 22.8501 37.5364C23.3983 36.7843 24.1678 36.2322 25.0454 35.9613ZM62.8889 58.5843V29.5478L45.8519 34.9059V53.224L62.8889 58.5843ZM35.6296 59.7662H40.7407V57.1014L35.6296 55.4964V59.7662ZM27.1111 47.347L40.7407 51.6277V36.5043L27.1111 40.7938V47.347Z" fill="#254FF3"></path></svg>