<svg xmlns="http://www.w3.org/2000/svg" width="60" height="60" viewBox="0 0 90 90" fill="none"><circle cx="45" cy="45" r="45" fill="#254FF3" fill-opacity="0.1"></circle><path d="M51.7114 45.3688C51.7106 52.6644 49.9158 59.8478 46.485 66.2863C46.3402 66.5662 46.1413 66.8146 45.8997 67.0169C45.6581 67.2193 45.3788 67.3716 45.0778 67.4651C44.7769 67.5586 44.4604 67.5913 44.1467 67.5614C43.833 67.5315 43.5284 67.4396 43.2505 67.2909C42.9726 67.1423 42.7271 66.9399 42.5281 66.6955C42.3292 66.4512 42.1807 66.1697 42.0915 65.8675C42.0022 65.5653 41.9739 65.2483 42.0082 64.9351C42.0424 64.6218 42.1386 64.3185 42.2911 64.0428C45.3537 58.2948 46.9553 51.8817 46.9547 45.3688C46.9547 44.9483 46.7876 44.545 46.4903 44.2476C46.1929 43.9503 45.7896 43.7832 45.3691 43.7832C44.9486 43.7832 44.5453 43.9503 44.2479 44.2476C43.9506 44.545 43.7835 44.9483 43.7835 45.3688C43.7835 45.9996 43.533 46.6045 43.0869 47.0505C42.6409 47.4966 42.036 47.7471 41.4052 47.7471C40.7744 47.7471 40.1695 47.4966 39.7235 47.0505C39.2774 46.6045 39.0269 45.9996 39.0269 45.3688C39.0269 43.6867 39.6951 42.0735 40.8845 40.8841C42.0739 39.6947 43.687 39.0265 45.3691 39.0265C47.0512 39.0265 48.6644 39.6947 49.8538 40.8841C51.0432 42.0735 51.7114 43.6867 51.7114 45.3688ZM45.3691 31.0987C44.7383 31.0987 44.1334 31.3493 43.6874 31.7953C43.2413 32.2413 42.9908 32.8463 42.9908 33.4771C42.9908 34.1078 43.2413 34.7128 43.6874 35.1588C44.1334 35.6048 44.7383 35.8554 45.3691 35.8554C47.8914 35.858 50.3097 36.8612 52.0932 38.6447C53.8767 40.4282 54.8799 42.8465 54.8825 45.3688C54.8825 46.879 54.8111 48.4051 54.6704 49.9015C54.6395 50.2132 54.6705 50.5279 54.7616 50.8276C54.8526 51.1272 55.002 51.406 55.2011 51.6478C55.4001 51.8896 55.645 52.0897 55.9216 52.2366C56.1982 52.3835 56.5011 52.4743 56.8129 52.5038C56.8882 52.5038 56.9635 52.5038 57.0389 52.5038C57.6303 52.503 58.2002 52.2818 58.6374 51.8835C59.0746 51.4852 59.3476 50.9382 59.4033 50.3494C59.5599 48.7044 59.6372 47.0277 59.6372 45.3688C59.633 41.5858 58.1285 37.9588 55.4537 35.2837C52.7788 32.6085 49.1521 31.1034 45.3691 31.0987ZM39.0269 38.2793C39.4802 37.8545 39.7492 37.2691 39.7765 36.6484C39.8038 36.0277 39.5871 35.421 39.1728 34.958C38.7585 34.495 38.1795 34.2125 37.5596 34.171C36.9397 34.1294 36.3281 34.3321 35.8557 34.7356C34.3606 36.0746 33.1643 37.7134 32.3447 39.5455C31.5252 41.3776 31.1007 43.3618 31.099 45.3688C31.1001 49.4171 30.0687 53.3988 28.1023 56.9375C27.7951 57.4894 27.7197 58.1408 27.8927 58.7483C28.0657 59.3558 28.473 59.8697 29.0249 60.177C29.5769 60.4842 30.2282 60.5596 30.8358 60.3866C31.4433 60.2136 31.9572 59.8063 32.2644 59.2544C34.6228 55.0065 35.8589 50.2274 35.8557 45.3688C35.8569 44.0307 36.1399 42.7078 36.6863 41.4863C37.2327 40.2649 38.0302 39.1722 39.0269 38.2793ZM41.0286 50.9837C40.7246 50.9111 40.4093 50.8992 40.1007 50.9487C39.7921 50.9981 39.4962 51.1078 39.2301 51.2716C38.9639 51.4355 38.7327 51.6501 38.5495 51.9034C38.3664 52.1567 38.2349 52.4435 38.1627 52.7476C37.3997 55.9548 36.137 59.0221 34.4208 61.8368C34.0928 62.3756 33.9923 63.0227 34.1413 63.6356C34.2903 64.2485 34.6768 64.7771 35.2156 65.1051C35.7543 65.4331 36.4014 65.5336 37.0143 65.3846C37.6272 65.2355 38.1558 64.8491 38.4838 64.3103C40.4588 61.0705 41.9128 57.5405 42.7926 53.8496C42.8651 53.5456 42.877 53.2302 42.8276 52.9216C42.7782 52.613 42.6684 52.3172 42.5046 52.051C42.3408 51.7849 42.1261 51.5536 41.8728 51.3705C41.6196 51.1873 41.3327 51.0559 41.0286 50.9837ZM56.2362 55.7542C55.9337 55.6755 55.6187 55.6571 55.3092 55.7001C54.9996 55.7432 54.7016 55.8468 54.4321 56.0051C54.1626 56.1634 53.927 56.3733 53.7387 56.6227C53.5504 56.8721 53.413 57.1562 53.3346 57.4587C52.8954 59.1292 52.3661 60.7746 51.749 62.3878C51.5239 62.9766 51.5417 63.6306 51.7984 64.2063C52.0552 64.7819 52.53 65.2321 53.1186 65.4579C53.3896 65.5633 53.678 65.6171 53.9688 65.6164C54.4503 65.6166 54.9205 65.4705 55.3172 65.1977C55.7139 64.9248 56.0185 64.538 56.1906 64.0883C56.8708 62.3136 57.4524 60.5027 57.9327 58.6637C58.0128 58.3613 58.0324 58.046 57.9905 57.736C57.9485 57.4259 57.8458 57.1272 57.6882 56.8569C57.5306 56.5867 57.3212 56.3501 57.072 56.1609C56.8229 55.9717 56.5388 55.8335 56.2362 55.7542ZM45.3691 23.1709C39.503 23.1771 33.8772 25.5025 29.7188 29.6401C25.5604 33.7777 23.2068 39.3917 23.1712 45.2578C23.1712 45.2955 23.1712 45.3331 23.1712 45.3708C23.1716 47.253 22.836 49.1202 22.1802 50.8846C22.0691 51.1779 22.017 51.4904 22.0271 51.8039C22.0372 52.1175 22.1092 52.4259 22.239 52.7115C22.3688 52.9971 22.5538 53.2542 22.7834 53.468C23.013 53.6818 23.2826 53.848 23.5767 53.9572C23.8708 54.0663 24.1836 54.1162 24.4971 54.104C24.8106 54.0917 25.1185 54.0176 25.4032 53.8858C25.6879 53.754 25.9437 53.5672 26.1559 53.3362C26.3681 53.1051 26.5325 52.8344 26.6396 52.5395C27.4797 50.2814 27.9158 47.893 27.9279 45.4837C27.9279 45.4461 27.9279 45.4084 27.9279 45.3708C27.9148 40.7451 29.7397 36.3036 33.0013 33.0235C36.2628 29.7433 40.6939 27.8932 45.3196 27.88C49.9453 27.8669 54.3867 29.6918 57.6669 32.9534C60.947 36.215 62.7972 40.646 62.8103 45.2717C62.8103 45.3034 62.8103 45.3371 62.8103 45.3708C62.8115 49.4625 62.3635 53.542 61.4745 57.536C61.3368 58.1515 61.4492 58.7966 61.7871 59.3292C62.125 59.8618 62.6605 60.2384 63.2761 60.3761C63.4485 60.4143 63.6247 60.433 63.8013 60.4316C64.3415 60.4312 64.8654 60.2468 65.2869 59.9089C65.7083 59.571 66.0022 59.0997 66.1202 58.5726C67.0767 54.2732 67.5619 49.8823 67.567 45.4778C67.567 45.4421 67.567 45.4064 67.567 45.3708C67.5607 39.4853 65.22 33.8426 61.0586 29.6807C56.8971 25.5189 51.2546 23.1777 45.3691 23.1709Z" fill="#254FF3"></path></svg>