<svg xmlns="http://www.w3.org/2000/svg" width="30" height="30" viewBox="0 0 30 30" fill="none"><circle cx="15" cy="15" r="15" fill="white"></circle><path d="M23.4325 19.1152C24.1892 17.1073 24.1892 14.8925 23.4325 12.8845C23.4217 12.8438 23.4071 12.8042 23.3889 12.7662C22.7352 11.0711 21.5842 9.61327 20.087 8.5842C18.5898 7.55513 16.8165 7.00289 14.9997 7H14.9956C13.1776 7.00385 11.4033 7.55775 9.90596 8.58889C8.40864 9.62002 7.25839 11.0801 6.60642 12.7772C6.59319 12.8064 6.58209 12.8365 6.57319 12.8672C5.80894 14.8857 5.80894 17.114 6.57319 19.1325C6.58209 19.1633 6.59319 19.1934 6.60642 19.2225C7.25566 20.9213 8.40506 22.383 9.90271 23.4145C11.4004 24.4461 13.1758 24.9989 14.9943 25C16.8128 25.001 18.5889 24.4503 20.0877 23.4204C21.5866 22.3906 22.7377 20.9302 23.3889 19.2322C23.407 19.1947 23.4216 19.1555 23.4325 19.1152ZM12.6702 18.2291C12.3545 16.7597 12.3545 15.2401 12.6702 13.7707H17.3293C17.645 15.2401 17.645 16.7597 17.3293 18.2291H12.6702ZM16.9499 19.6137C16.5012 20.9204 15.8425 22.1452 14.9997 23.2399C14.1581 22.1449 13.5004 20.9201 13.0523 19.6137H16.9499ZM7.38455 15.9999C7.38518 15.2442 7.49882 14.4928 7.7217 13.7707H11.26C10.9821 15.2438 10.9821 16.7559 11.26 18.2291H7.7217C7.49882 17.507 7.38518 16.7556 7.38455 15.9999ZM13.0523 12.3861C13.5014 11.0794 14.1603 9.85465 15.0032 8.75982C15.8448 9.85478 16.5023 11.0796 16.9499 12.3861H13.0523ZM18.745 13.7707H22.2833C22.7301 15.2232 22.7301 16.7765 22.2833 18.2291H18.7415C19.0203 16.756 19.0203 15.2437 18.7415 13.7707H18.745ZM21.7038 12.3861H18.4155C18.0027 11.0185 17.3788 9.72371 16.5664 8.54867C17.649 8.77829 18.6688 9.24037 19.5552 9.90295C20.4417 10.5655 21.1736 11.4128 21.7004 12.3861H21.7038ZM13.4331 8.54867C12.6204 9.72366 11.9963 11.0184 11.5833 12.3861H8.29837C8.82517 11.4127 9.55719 10.5653 10.4438 9.90276C11.3303 9.24018 12.3503 8.77815 13.4331 8.54867ZM8.29837 19.6137H11.5833C11.9963 20.9814 12.6204 22.2761 13.4331 23.4511C12.3503 23.2216 11.3303 22.7596 10.4438 22.097C9.55719 21.4344 8.82517 20.5871 8.29837 19.6137ZM16.5664 23.4511C17.3788 22.2761 18.0027 20.9813 18.4155 19.6137H21.7004C21.1736 20.587 20.4417 21.4342 19.5552 22.0968C18.6688 22.7594 17.649 23.2215 16.5664 23.4511Z" fill="#254FF3"></path></svg>