<svg xmlns="http://www.w3.org/2000/svg" width="30" height="30" viewBox="0 0 30 30" fill="none"><circle cx="15" cy="15" r="15" fill="white"></circle><g clip-path="url(#clip0_89_4113)"><path d="M7.68225 11.1399L14.6175 6.98188C14.7341 6.91194 14.8674 6.875 15.0034 6.875C15.1393 6.875 15.2727 6.91194 15.3892 6.98188L22.3177 11.1406C22.3733 11.1739 22.4194 11.2211 22.4513 11.2775C22.4832 11.3339 22.5 11.3976 22.5 11.4624V20.9994C22.5 21.1983 22.421 21.3891 22.2803 21.5297C22.1397 21.6704 21.9489 21.7494 21.75 21.7494H8.25C8.05109 21.7494 7.86032 21.6704 7.71967 21.5297C7.57902 21.3891 7.5 21.1983 7.5 20.9994V11.4616C7.49999 11.3968 7.51677 11.3331 7.54871 11.2767C7.58065 11.2203 7.62666 11.1732 7.68225 11.1399ZM19.7595 12.1824L15.0457 16.2616L10.2352 12.1779L9.26475 13.3209L15.0547 18.2371L20.7405 13.3171L19.7595 12.1824Z" fill="#254FF3"></path></g><defs><clipPath id="clip0_89_4113"><rect width="18" height="18" fill="white" transform="translate(6 6)"></rect></clipPath></defs></svg>