<svg xmlns="http://www.w3.org/2000/svg" width="30" height="30" viewBox="0 0 30 30" fill="none"><circle cx="15" cy="15" r="15" fill="white"></circle><g clip-path="url(#clip0_89_4104)"><path d="M10.5 7.5H19.5C19.6989 7.5 19.8897 7.57902 20.0303 7.71967C20.171 7.86032 20.25 8.05109 20.25 8.25V21.75C20.25 21.9489 20.171 22.1397 20.0303 22.2803C19.8897 22.421 19.6989 22.5 19.5 22.5H10.5C10.3011 22.5 10.1103 22.421 9.96967 22.2803C9.82902 22.1397 9.75 21.9489 9.75 21.75V8.25C9.75 8.05109 9.82902 7.86032 9.96967 7.71967C10.1103 7.57902 10.3011 7.5 10.5 7.5ZM15 18.75C14.8011 18.75 14.6103 18.829 14.4697 18.9697C14.329 19.1103 14.25 19.3011 14.25 19.5C14.25 19.6989 14.329 19.8897 14.4697 20.0303C14.6103 20.171 14.8011 20.25 15 20.25C15.1989 20.25 15.3897 20.171 15.5303 20.0303C15.671 19.8897 15.75 19.6989 15.75 19.5C15.75 19.3011 15.671 19.1103 15.5303 18.9697C15.3897 18.829 15.1989 18.75 15 18.75Z" fill="#254FF3"></path></g><defs><clipPath id="clip0_89_4104"><rect width="18" height="18" fill="white" transform="translate(6 6)"></rect></clipPath></defs></svg>